<svg width="874" height="573" viewBox="0 0 874 573" fill="none" xmlns="http://www.w3.org/2000/svg">
<rect width="867.219" height="562.662" transform="translate(0 9.89993) rotate(-0.654088)" fill="#11303F"/>
<path d="M400.865 88.8306L213.227 155.141L234.29 196.059L269.211 263.897L441.212 177.499L483.407 235.158L292.181 322.184L397.299 473.34L344.982 537.363L277.266 555.127L317.079 510.582L311.731 513.065L142.043 184.566L111.759 136.452L375.79 39.3508L400.865 88.8306Z" fill="#FFD700"/>
<path d="M397.299 473.34L292.181 322.184L483.407 235.158L441.212 177.499L269.211 263.897L234.29 196.059M397.299 473.34L317.079 510.582M397.299 473.34L344.982 537.363L277.266 555.127M400.247 93.7922L394.56 139.439L234.29 196.059M234.29 196.059L213.227 155.141L400.865 88.8306L375.79 39.3508L111.759 136.452L142.043 184.566L311.731 513.065L317.079 510.582M110.152 149.352L102.116 213.854L277.266 555.127M277.266 555.127L317.079 510.582M482.665 241.112L469.297 307.972L329.905 367.193" stroke="#FFD700"/>
<path fill-rule="evenodd" clip-rule="evenodd" d="M471.216 165.416L574.514 176.967L483.74 518.265L593.226 540.162L670.532 188.602L815.092 199.683L843.082 99.8307L507.502 48.1089L471.216 165.416Z" fill="#FFD700"/>
<path d="M462.6 48.6215L434.808 165.831L471.216 165.416L507.502 48.1089L462.6 48.6215Z" fill="#11303F"/>
<path d="M483.74 518.265L574.514 176.967L533.947 177.43L438.691 505.924L483.74 518.265Z" fill="#11303F"/>
<path d="M462.6 48.6215L462.594 48.1216L462.203 48.126L462.113 48.5062L462.6 48.6215ZM434.808 165.831L434.322 165.716L434.174 166.339L434.814 166.331L434.808 165.831ZM507.502 48.1089L507.578 47.6147L507.537 47.6085L507.496 47.6089L507.502 48.1089ZM843.082 99.8307L843.563 99.9656L843.715 99.4224L843.158 99.3365L843.082 99.8307ZM815.092 199.683L815.054 200.181L815.463 200.212L815.573 199.817L815.092 199.683ZM670.532 188.602L670.57 188.103L670.137 188.07L670.043 188.495L670.532 188.602ZM593.226 540.162L593.127 540.653L593.609 540.749L593.714 540.27L593.226 540.162ZM483.74 518.265L483.608 518.748L483.625 518.752L483.642 518.756L483.74 518.265ZM574.514 176.967L574.998 177.096L575.147 176.535L574.57 176.47L574.514 176.967ZM438.691 505.924L438.211 505.785L438.07 506.272L438.559 506.407L438.691 505.924ZM533.947 177.43L533.942 176.93L533.57 176.935L533.467 177.291L533.947 177.43ZM462.113 48.5062L434.322 165.716L435.295 165.947L463.086 48.7369L462.113 48.5062ZM434.814 166.331L471.221 165.916L471.21 164.916L434.803 165.331L434.814 166.331ZM471.693 165.564L507.98 48.2567L507.024 47.9611L470.738 165.268L471.693 165.564ZM507.496 47.6089L462.594 48.1216L462.605 49.1215L507.508 48.6089L507.496 47.6089ZM507.426 48.6031L843.005 100.325L843.158 99.3365L507.578 47.6147L507.426 48.6031ZM842.6 99.6957L814.611 199.548L815.573 199.817L843.563 99.9656L842.6 99.6957ZM815.13 199.184L670.57 188.103L670.494 189.101L815.054 200.181L815.13 199.184ZM670.043 188.495L592.737 540.055L593.714 540.27L671.02 188.709L670.043 188.495ZM593.324 539.672L483.838 517.775L483.642 518.756L593.127 540.653L593.324 539.672ZM484.223 518.394L574.998 177.096L574.031 176.839L483.257 518.137L484.223 518.394ZM574.57 176.47L471.271 164.919L471.16 165.913L574.459 177.464L574.57 176.47ZM483.872 517.783L438.823 505.442L438.559 506.407L483.608 518.748L483.872 517.783ZM439.171 506.064L534.428 177.57L533.467 177.291L438.211 505.785L439.171 506.064ZM533.953 177.93L574.52 177.467L574.509 176.467L533.942 176.93L533.953 177.93Z" fill="#FFD700"/>
<path d="M234.131 195.239L217.687 156.424L217.63 151.425L399.944 90.3395L392.516 140.428L234.131 195.239Z" fill="#11303F"/>
<path d="M217.687 156.424L234.131 195.239L392.516 140.428L399.944 90.3395M217.687 156.424L217.63 151.425L399.944 90.3395M217.687 156.424L399.944 90.3395" stroke="#FFD700"/>
<path d="M481.594 234.417L293.554 319.569L333.077 365.121L471.44 308.538L481.594 234.417Z" fill="#11303F" stroke="#FFD700"/>
<path d="M108.443 135.67L100.288 209.768L274.147 546.805L312.779 514.362L113.443 135.613" stroke="#FFD700"/>
<path d="M97.3226 212.802L113.488 139.613L310.756 512.385L275.181 549.794L97.3226 212.802Z" fill="#11303F" stroke="#FFD700"/>
</svg>
