<svg width="253" height="262" viewBox="0 0 253 262" fill="none" xmlns="http://www.w3.org/2000/svg">
<path d="M107 34.3146L87 116.315L145 94.3146C141.8 94.3146 109 197.815 107 255.815L155 261L190 94.3146L252 116.315V55.8146L107 34.3146Z" fill="#FFD700"/>
<path d="M46.7137 96.5L155 124L140.714 151L53.7137 131.5L42 249L1 235L28.7137 1L183.714 28.3146L140.714 50.5H46.7137V96.5Z" fill="#FFD700"/>
<path d="M46.7137 96.5H46.2137V96.8889L46.5906 96.9846L46.7137 96.5ZM155 124L155.442 124.234L155.739 123.672L155.123 123.515L155 124ZM140.714 151L140.604 151.488L140.977 151.571L141.156 151.234L140.714 151ZM53.7137 131.5L53.8231 131.012L53.2722 130.889L53.2162 131.45L53.7137 131.5ZM42 249L41.8384 249.473L42.435 249.677L42.4975 249.05L42 249ZM1 235L0.50347 234.941L0.455934 235.343L0.838428 235.473L1 235ZM28.7137 1L28.8005 0.507587L28.2794 0.415762L28.2172 0.941194L28.7137 1ZM183.714 28.3146L183.943 28.759L185.26 28.0794L183.8 27.8222L183.714 28.3146ZM140.714 50.5V51H140.835L140.943 50.9443L140.714 50.5ZM46.7137 50.5V50H46.2137V50.5H46.7137ZM107 34.3146L107.073 33.82L106.622 33.7531L106.514 34.1961L107 34.3146ZM87 116.315L86.5142 116.196L86.3634 116.815H87V116.315ZM107 255.815L106.5 255.797L106.484 256.262L106.946 256.312L107 255.815ZM155 261L154.946 261.497L155.396 261.546L155.489 261.103L155 261ZM190 94.3146L190.167 93.8434L189.628 93.6522L189.511 94.2119L190 94.3146ZM252 116.315L251.833 116.786L252.5 117.023V116.315H252ZM252 55.8146H252.5V55.3833L252.073 55.32L252 55.8146ZM46.5906 96.9846L154.877 124.485L155.123 123.515L46.8368 96.0154L46.5906 96.9846ZM154.558 123.766L140.272 150.766L141.156 151.234L155.442 124.234L154.558 123.766ZM140.823 150.512L53.8231 131.012L53.6044 131.988L140.604 151.488L140.823 150.512ZM53.2162 131.45L41.5025 248.95L42.4975 249.05L54.2112 131.55L53.2162 131.45ZM42.1616 248.527L1.16157 234.527L0.838428 235.473L41.8384 249.473L42.1616 248.527ZM1.49653 235.059L29.2102 1.05881L28.2172 0.941194L0.50347 234.941L1.49653 235.059ZM28.6269 1.49241L183.627 28.8071L183.8 27.8222L28.8005 0.507587L28.6269 1.49241ZM183.484 27.8703L140.484 50.0557L140.943 50.9443L183.943 28.759L183.484 27.8703ZM140.714 50H46.7137V51H140.714V50ZM46.2137 50.5V96.5H47.2137V50.5H46.2137ZM106.514 34.1961L86.5142 116.196L87.4857 116.433L107.486 34.4331L106.514 34.1961ZM87 116.815C91.5801 116.815 97.7157 115.42 104.257 113.354C110.81 111.285 117.814 108.528 124.149 105.773C130.485 103.019 136.159 100.263 140.053 98.1937C141.998 97.1605 143.51 96.2922 144.441 95.6771C144.892 95.3784 145.252 95.1108 145.445 94.8962C145.496 94.84 145.554 94.7669 145.598 94.6805C145.637 94.6031 145.702 94.4397 145.648 94.2439C145.586 94.0204 145.415 93.9094 145.295 93.8636C145.185 93.8214 145.076 93.8146 145 93.8146V94.8146C145.024 94.8146 144.992 94.8186 144.937 94.7975C144.873 94.7729 144.735 94.6934 144.684 94.5115C144.642 94.3574 144.697 94.2457 144.705 94.2297C144.718 94.2047 144.724 94.2029 144.702 94.2272C144.605 94.3349 144.347 94.5399 143.889 94.8428C142.999 95.4309 141.521 96.2813 139.584 97.3106C135.716 99.3662 130.065 102.111 123.751 104.856C117.436 107.602 110.465 110.345 103.956 112.4C97.4343 114.46 91.4199 115.815 87 115.815V116.815ZM145 93.8146C144.787 93.8146 144.621 93.9175 144.521 93.9952C144.413 94.0797 144.313 94.1886 144.223 94.3035C144.04 94.5348 143.841 94.8584 143.628 95.2538C143.199 96.0493 142.673 97.2086 142.068 98.6855C140.855 101.643 139.299 105.925 137.52 111.234C133.96 121.854 129.494 136.615 125.067 153.186C116.215 186.316 107.502 226.737 106.5 255.797L107.5 255.832C108.498 226.892 117.184 186.563 126.033 153.444C130.456 136.89 134.915 122.15 138.468 111.552C140.244 106.251 141.792 101.994 142.993 99.0649C143.594 97.5984 144.104 96.4774 144.508 95.7285C144.711 95.3517 144.878 95.087 145.008 94.9231C145.073 94.8404 145.116 94.8 145.136 94.7845C145.164 94.7623 145.113 94.8146 145 94.8146V93.8146ZM106.946 256.312L154.946 261.497L155.054 260.503L107.054 255.317L106.946 256.312ZM155.489 261.103L190.489 94.4174L189.511 94.2119L154.511 260.897L155.489 261.103ZM189.833 94.7858L251.833 116.786L252.167 115.843L190.167 93.8434L189.833 94.7858ZM252.5 116.315V55.8146H251.5V116.315H252.5ZM252.073 55.32L107.073 33.82L106.927 34.8092L251.927 56.3092L252.073 55.32ZM87.1773 116.782L145.177 94.7821L144.823 93.8471L86.8226 115.847L87.1773 116.782Z" fill="#FFD700"/>
</svg>
